<svg xmlns="http://www.w3.org/2000/svg" xml:space="preserve" style="fill-rule:evenodd;clip-rule:evenodd" viewBox="0 0 760 450">
  <path d="M0 0h760v450H0z" style="fill:#fff"/>
  <path d="M62.308 274.856c-7.008-8.064-13.032-17.832-18.072-29.304-5.04-11.472-7.56-23.688-7.56-36.648 0-12.96 2.52-25.176 7.56-36.648 5.04-11.472 11.064-21.24 18.072-29.304l8.928 6.336c-6.528 7.776-11.904 16.92-16.128 27.432-4.224 10.512-6.336 21.24-6.336 32.184 0 10.944 2.112 21.672 6.336 32.184 4.224 10.512 9.6 19.656 16.128 27.432l-8.928 6.336ZM253.18 274.091l7.776-11.952c-1.728-.288-3.288-1.2-4.68-2.736-1.392-1.536-2.088-3.408-2.088-5.616 0-2.496.888-4.632 2.664-6.408 1.776-1.776 3.96-2.664 6.552-2.664 2.592 0 4.776.888 6.552 2.664 1.776 1.776 2.664 3.912 2.664 6.408 0 1.632-.336 3.192-1.008 4.68-.672 1.488-1.68 3.192-3.024 5.112l-9.504 14.4-5.904-3.888ZM484.389 274.091l7.776-11.952c-1.728-.288-3.288-1.2-4.68-2.736-1.392-1.536-2.088-3.408-2.088-5.616 0-2.496.888-4.632 2.664-6.408 1.776-1.776 3.96-2.664 6.552-2.664 2.592 0 4.776.888 6.552 2.664 1.776 1.776 2.664 3.912 2.664 6.408 0 1.632-.336 3.192-1.008 4.68-.672 1.488-1.68 3.192-3.024 5.112l-9.504 14.4-5.904-3.888ZM693.108 136.504c7.008 8.064 13.032 17.832 18.072 29.304 5.04 11.472 7.56 23.688 7.56 36.648 0 12.96-2.52 25.176-7.56 36.648-5.04 11.472-11.064 21.24-18.072 29.304l-8.928-6.336c6.528-7.776 11.904-16.92 16.128-27.432 4.224-10.512 6.336-21.24 6.336-32.184 0-10.944-2.112-21.672-6.336-32.184-4.224-10.512-9.6-19.656-16.128-27.432l8.928-6.336Z" style="fill-rule:nonzero"/>
  <path d="M94.5 157.5h115v99h-115zM320.5 157.5h115v99h-115zM551.5 157.5h115v99h-115z" style="fill:#e8f0fe;stroke:#dadce0;stroke-width:1px"/>
  <path d="m124.16 241.56 18.912-68.832h17.76l19.008 68.832h-13.92l-10.944-45.408c-.32-1.472-.656-2.912-1.008-4.32a166.838 166.838 0 0 1-1.008-4.272c-.32-1.44-.64-2.864-.96-4.272-.32 1.408-1.6 7.136-1.92 8.544-.32 1.408-.672 2.848-1.056 4.32l-11.328 45.408H124.16Zm15.168-16.992 2.88-11.52h19.776l1.344 11.52h-24ZM356.96 241.416v-68.544h21.408c7.552 0 13.312 1.328 17.28 3.984 3.968 2.656 5.952 6.928 5.952 12.816 0 4.16-.928 7.584-2.784 10.272-1.856 2.688-4.352 4.384-7.488 5.088v.48c2.368.576 4.416 1.504 6.144 2.784 1.728 1.28 3.088 2.976 4.08 5.088s1.488 4.768 1.488 7.968c0 4.16-.88 7.744-2.64 10.752-1.76 3.008-4.304 5.312-7.632 6.912-3.328 1.6-7.36 2.4-12.096 2.4H356.96Zm22.368-11.424c3.456 0 5.856-.832 7.2-2.496 1.344-1.664 2.016-3.968 2.016-6.912 0-1.984-.288-3.632-.864-4.944-.576-1.312-1.568-2.304-2.976-2.976-1.408-.672-3.36-1.008-5.856-1.008h-8.928v18.336h9.408Zm-1.056-30.144c3.392 0 5.776-.624 7.152-1.872 1.376-1.248 2.064-3.216 2.064-5.904 0-2.752-.736-4.736-2.208-5.952-1.472-1.216-3.968-1.824-7.488-1.824h-7.872v15.552h8.352ZM613.128 243.336c-6.592 0-12.016-1.392-16.272-4.176-4.256-2.784-7.424-6.72-9.504-11.808-2.08-5.088-3.12-11.024-3.12-17.808 0-5.696.704-10.8 2.112-15.312 1.408-4.512 3.472-8.368 6.192-11.568 2.72-3.2 6.112-5.632 10.176-7.296 4.064-1.664 8.72-2.496 13.968-2.496 3.328 0 6.256.336 8.784 1.008 2.528.672 5.104 1.648 7.728 2.928l-4.608 11.424c-2.368-1.216-4.56-2.048-6.576-2.496-2.016-.448-3.952-.672-5.808-.672-3.328 0-6.144.56-8.448 1.68-2.304 1.12-4.144 2.736-5.52 4.848-1.376 2.112-2.368 4.64-2.976 7.584-.608 2.944-.912 6.208-.912 9.792 0 4.992.592 9.136 1.776 12.432 1.184 3.296 3.024 5.744 5.52 7.344 2.496 1.6 5.76 2.4 9.792 2.4 2.24 0 4.528-.288 6.864-.864 2.336-.576 5.072-1.568 8.208-2.976v12.48a39.992 39.992 0 0 1-8.592 2.688 46.155 46.155 0 0 1-8.784.864ZM99.248 137l.4-3.264h-2.112l-.4 3.264h-.864l.4-3.264h-1.28v-.912h1.392l.288-2.368h-1.36v-.928h1.472l.368-2.928h.848l-.352 2.928h2.112l.368-2.928h.848l-.352 2.928h1.28v.928h-1.392l-.288 2.368h1.36v.912h-1.472l-.4 3.264h-.864Zm.512-4.176.288-2.368h-2.112l-.288 2.368h2.112ZM104.822 137v-7.776h1.056l.112 1.024h.032c.202-.363.437-.656.704-.88.266-.224.624-.336 1.072-.336.757 0 1.248.448 1.472 1.344.224-.416.469-.741.736-.976.277-.245.64-.368 1.088-.368.544 0 .965.208 1.264.624.309.405.464.997.464 1.776V137h-1.312v-5.472c0-.907-.278-1.36-.832-1.36a.833.833 0 0 0-.672.304c-.171.192-.363.491-.576.896V137h-1.216v-5.472c0-.448-.064-.784-.192-1.008-.118-.235-.32-.352-.608-.352a.93.93 0 0 0-.704.304c-.192.192-.384.491-.576.896V137h-1.312ZM115.884 140.344c-.384 0-.726-.053-1.024-.16l.272-1.04c.106.032.218.059.336.08.128.021.25.032.368.032.543 0 .986-.16 1.328-.48.341-.309.608-.704.8-1.184l.24-.576-3.632-7.792h1.328l1.904 4.304c.149.341.304.709.464 1.104.17.395.336.779.495 1.152h.065c.138-.373.277-.752.416-1.136.149-.395.287-.768.415-1.12l1.696-4.304h1.248l-3.423 8.416c-.15.384-.32.741-.512 1.072a3.39 3.39 0 0 1-.688.848 2.984 2.984 0 0 1-.928.576 3.08 3.08 0 0 1-1.168.208ZM125.201 137v-1.136h2.608v-8.24h-2.608v-1.12h6.56v1.12h-2.608v8.24h2.608V137h-6.56ZM137.911 137.192c-.512 0-.976-.091-1.392-.272a3.044 3.044 0 0 1-1.056-.784 3.68 3.68 0 0 1-.688-1.28c-.16-.501-.24-1.077-.24-1.728 0-.629.096-1.195.288-1.696a4.21 4.21 0 0 1 .784-1.296 3.541 3.541 0 0 1 1.136-.816 3.202 3.202 0 0 1 1.328-.288c.469 0 .885.091 1.248.272a4.02 4.02 0 0 1 1.072.736h.048l-.064-1.44v-2.992h1.312V137h-1.088l-.112-1.024h-.048c-.32.331-.704.619-1.152.864a2.866 2.866 0 0 1-1.376.352Zm.272-1.104c.768 0 1.499-.389 2.192-1.168v-3.872c-.352-.331-.699-.565-1.04-.704a2.581 2.581 0 0 0-1.008-.208c-.341 0-.661.075-.96.224a2.308 2.308 0 0 0-.768.608 2.989 2.989 0 0 0-.512.928 3.637 3.637 0 0 0-.192 1.216c0 .939.197 1.669.592 2.192.405.523.971.784 1.696.784ZM323.8 81.192c-.363 0-.672-.123-.928-.368-.245-.245-.368-.571-.368-.976s.123-.731.368-.976c.256-.256.565-.384.928-.384.363 0 .667.128.912.384.256.245.384.571.384.976s-.128.731-.384.976a1.239 1.239 0 0 1-.912.368ZM329.822 81v-7.776h1.056l.112 1.024h.032c.202-.363.437-.656.704-.88.266-.224.624-.336 1.072-.336.757 0 1.248.448 1.472 1.344.224-.416.469-.741.736-.976.277-.245.64-.368 1.088-.368.544 0 .965.208 1.264.624.309.405.464.997.464 1.776V81h-1.312v-5.472c0-.907-.278-1.36-.832-1.36a.833.833 0 0 0-.672.304c-.171.192-.363.491-.576.896V81h-1.216v-5.472c0-.448-.064-.784-.192-1.008-.118-.235-.32-.352-.608-.352a.93.93 0 0 0-.704.304c-.192.192-.384.491-.576.896V81h-1.312ZM340.883 84.344c-.384 0-.725-.053-1.024-.16l.272-1.04c.107.032.219.059.336.08.128.021.251.032.368.032.544 0 .987-.16 1.328-.48.342-.309.608-.704.8-1.184l.24-.576-3.632-7.792h1.328l1.904 4.304c.15.341.304.709.464 1.104l.496 1.152h.064c.139-.373.278-.752.416-1.136.15-.395.288-.768.416-1.12l1.696-4.304h1.248l-3.424 8.416a7.64 7.64 0 0 1-.512 1.072 3.369 3.369 0 0 1-.688.848 2.962 2.962 0 0 1-.928.576c-.341.139-.73.208-1.168.208ZM350.041 75.224h6.88v.992h-6.88zM364.111 81.192a5.15 5.15 0 0 1-1.696-.272 4.018 4.018 0 0 1-1.344-.784 3.65 3.65 0 0 1-.896-1.28c-.213-.512-.32-1.088-.32-1.728 0-.651.112-1.227.336-1.728.235-.512.549-.944.944-1.296a4.02 4.02 0 0 1 1.376-.8 5.19 5.19 0 0 1 1.68-.272c.64 0 1.189.112 1.648.336.469.224.864.491 1.184.8l-.656.848a4.193 4.193 0 0 0-1.008-.656 2.606 2.606 0 0 0-1.12-.24c-.448 0-.859.075-1.232.224a2.641 2.641 0 0 0-.96.608 2.952 2.952 0 0 0-.608.96 3.174 3.174 0 0 0-.224 1.216c0 .448.069.853.208 1.216.149.363.352.677.608.944.267.256.581.459.944.608.373.139.784.208 1.232.208.48 0 .917-.091 1.312-.272a4.784 4.784 0 0 0 1.088-.704l.592.848a5.065 5.065 0 0 1-1.44.896 4.327 4.327 0 0 1-1.648.32ZM374.981 81.192c-.832 0-1.467-.235-1.904-.704-.438-.469-.656-1.168-.656-2.096V70.68h-2.768v-1.072h4.08v8.88c0 .576.138.992.416 1.248.277.245.65.368 1.12.368.458 0 .944-.117 1.456-.352l.336.976a7.408 7.408 0 0 1-.992.336 4.024 4.024 0 0 1-1.088.128ZM382.298 81.192c-.362 0-.704-.053-1.024-.16a2.75 2.75 0 0 1-.848-.416 2.19 2.19 0 0 1-.56-.688 2.09 2.09 0 0 1-.208-.944c0-.437.102-.816.304-1.136.214-.331.544-.613.992-.848.459-.235 1.046-.427 1.76-.576a21.913 21.913 0 0 1 2.576-.352 2.805 2.805 0 0 0-.128-.752 1.565 1.565 0 0 0-.352-.608 1.66 1.66 0 0 0-.64-.432c-.256-.107-.57-.16-.944-.16-.512 0-1.002.101-1.472.304-.469.192-.885.4-1.248.624l-.512-.896c.192-.128.416-.256.672-.384.267-.139.544-.261.832-.368.299-.107.614-.192.944-.256a4.547 4.547 0 0 1 1.008-.112c1.067 0 1.856.293 2.368.88.523.576.784 1.349.784 2.32V81h-1.072l-.112-1.056h-.048a7.314 7.314 0 0 1-1.456.88 3.765 3.765 0 0 1-1.616.368Zm.352-1.056c.448 0 .886-.096 1.312-.288.438-.203.88-.491 1.328-.864v-2.048a17.03 17.03 0 0 0-2.096.272c-.554.117-1.002.261-1.344.432-.33.16-.565.347-.704.56a1.196 1.196 0 0 0-.208.688c0 .224.048.416.144.576.096.149.219.277.368.384.16.096.342.171.544.224.214.043.432.064.656.064ZM393.216 81.192a6.222 6.222 0 0 1-2.128-.352 7.866 7.866 0 0 1-1.696-.864l.608-.864c.448.32.939.576 1.472.768.544.192 1.179.288 1.904.288.662 0 1.152-.117 1.472-.352.331-.245.496-.533.496-.864a1.06 1.06 0 0 0-.08-.416c-.053-.128-.17-.251-.352-.368-.17-.117-.416-.229-.736-.336-.32-.107-.741-.213-1.264-.32-1.013-.213-1.776-.496-2.288-.848-.501-.363-.752-.837-.752-1.424a1.93 1.93 0 0 1 .816-1.568 3.044 3.044 0 0 1 1.008-.464 5.097 5.097 0 0 1 1.408-.176c.598 0 1.174.101 1.728.304a5.754 5.754 0 0 1 1.408.688l-.64.848a5.007 5.007 0 0 0-1.2-.592 4.333 4.333 0 0 0-1.408-.224c-.661 0-1.125.112-1.392.336-.266.224-.4.485-.4.784 0 .341.176.603.528.784.352.171.928.341 1.728.512.651.139 1.184.288 1.6.448.416.149.742.32.976.512.246.192.411.405.496.64.096.235.144.501.144.8 0 .32-.074.619-.224.896a2.176 2.176 0 0 1-.672.736c-.288.213-.65.379-1.088.496a5.126 5.126 0 0 1-1.472.192ZM403.11 81.192a6.222 6.222 0 0 1-2.128-.352 7.842 7.842 0 0 1-1.696-.864l.608-.864c.448.32.939.576 1.472.768.544.192 1.179.288 1.904.288.661 0 1.152-.117 1.472-.352.331-.245.496-.533.496-.864 0-.149-.027-.288-.08-.416-.053-.128-.171-.251-.352-.368-.171-.117-.416-.229-.736-.336-.32-.107-.741-.213-1.264-.32-1.013-.213-1.776-.496-2.288-.848-.501-.363-.752-.837-.752-1.424 0-.309.069-.597.208-.864a1.92 1.92 0 0 1 .608-.704 3.026 3.026 0 0 1 1.008-.464 5.092 5.092 0 0 1 1.408-.176c.597 0 1.173.101 1.728.304a5.754 5.754 0 0 1 1.408.688l-.64.848a5.044 5.044 0 0 0-1.2-.592 4.338 4.338 0 0 0-1.408-.224c-.661 0-1.125.112-1.392.336-.267.224-.4.485-.4.784 0 .341.176.603.528.784.352.171.928.341 1.728.512.651.139 1.184.288 1.6.448.416.149.741.32.976.512.245.192.411.405.496.64.096.235.144.501.144.8 0 .32-.075.619-.224.896a2.176 2.176 0 0 1-.672.736c-.288.213-.651.379-1.088.496a5.13 5.13 0 0 1-1.472.192ZM322.6 111.432v-13.76h4.432v.752h-3.376v12.256h3.376v.752H322.6ZM334.43 109.192a5.146 5.146 0 0 1-1.696-.272 4.018 4.018 0 0 1-1.344-.784 3.65 3.65 0 0 1-.896-1.28c-.214-.512-.32-1.088-.32-1.728 0-.651.112-1.227.336-1.728a3.86 3.86 0 0 1 .944-1.296 4.01 4.01 0 0 1 1.376-.8 5.19 5.19 0 0 1 1.68-.272c.64 0 1.189.112 1.648.336.469.224.864.491 1.184.8l-.656.848a4.193 4.193 0 0 0-1.008-.656 2.609 2.609 0 0 0-1.12-.24c-.448 0-.859.075-1.232.224a2.625 2.625 0 0 0-.96.608 2.952 2.952 0 0 0-.608.96c-.15.363-.224.768-.224 1.216 0 .448.069.853.208 1.216.149.363.352.677.608.944.266.256.581.459.944.608.373.139.784.208 1.232.208.48 0 .917-.091 1.312-.272a4.784 4.784 0 0 0 1.088-.704l.592.848a5.093 5.093 0 0 1-1.44.896 4.327 4.327 0 0 1-1.648.32ZM345.299 109.192c-.832 0-1.466-.235-1.904-.704-.437-.469-.656-1.168-.656-2.096V98.68h-2.768v-1.072h4.08v8.88c0 .576.139.992.416 1.248.278.245.651.368 1.12.368.459 0 .944-.117 1.456-.352l.336.976a7.314 7.314 0 0 1-.992.336 4.013 4.013 0 0 1-1.088.128ZM352.617 109.192c-.362 0-.704-.053-1.024-.16a2.75 2.75 0 0 1-.848-.416 2.19 2.19 0 0 1-.56-.688 2.09 2.09 0 0 1-.208-.944c0-.437.102-.816.304-1.136.214-.331.544-.613.992-.848.459-.235 1.046-.427 1.76-.576a21.913 21.913 0 0 1 2.576-.352 2.805 2.805 0 0 0-.128-.752 1.565 1.565 0 0 0-.352-.608 1.66 1.66 0 0 0-.64-.432c-.256-.107-.57-.16-.944-.16-.512 0-1.002.101-1.472.304-.469.192-.885.4-1.248.624l-.512-.896c.192-.128.416-.256.672-.384.267-.139.544-.261.832-.368.299-.107.614-.192.944-.256a4.547 4.547 0 0 1 1.008-.112c1.067 0 1.856.293 2.368.88.523.576.784 1.349.784 2.32V109h-1.072l-.112-1.056h-.048a7.314 7.314 0 0 1-1.456.88 3.765 3.765 0 0 1-1.616.368Zm.352-1.056c.448 0 .886-.096 1.312-.288.438-.203.88-.491 1.328-.864v-2.048a17.03 17.03 0 0 0-2.096.272c-.554.117-1.002.261-1.344.432-.33.16-.565.347-.704.56a1.196 1.196 0 0 0-.208.688c0 .224.048.416.144.576.096.149.219.277.368.384.16.096.342.171.544.224.214.043.432.064.656.064ZM363.535 109.192a6.222 6.222 0 0 1-2.128-.352 7.842 7.842 0 0 1-1.696-.864l.608-.864c.448.32.939.576 1.472.768.544.192 1.179.288 1.904.288.661 0 1.152-.117 1.472-.352.331-.245.496-.533.496-.864 0-.149-.027-.288-.08-.416-.053-.128-.171-.251-.352-.368-.171-.117-.416-.229-.736-.336-.32-.107-.741-.213-1.264-.32-1.013-.213-1.776-.496-2.288-.848-.501-.363-.752-.837-.752-1.424 0-.309.069-.597.208-.864a1.92 1.92 0 0 1 .608-.704 3.026 3.026 0 0 1 1.008-.464 5.092 5.092 0 0 1 1.408-.176c.597 0 1.173.101 1.728.304a5.754 5.754 0 0 1 1.408.688l-.64.848a5.044 5.044 0 0 0-1.2-.592 4.338 4.338 0 0 0-1.408-.224c-.661 0-1.125.112-1.392.336-.267.224-.4.485-.4.784 0 .341.176.603.528.784.352.171.928.341 1.728.512.651.139 1.184.288 1.6.448.416.149.741.32.976.512.245.192.411.405.496.64.096.235.144.501.144.8 0 .32-.075.619-.224.896a2.176 2.176 0 0 1-.672.736c-.288.213-.651.379-1.088.496a5.13 5.13 0 0 1-1.472.192ZM373.429 109.192a6.218 6.218 0 0 1-2.128-.352 7.842 7.842 0 0 1-1.696-.864l.608-.864c.448.32.938.576 1.472.768.544.192 1.178.288 1.904.288.661 0 1.152-.117 1.472-.352.33-.245.496-.533.496-.864 0-.149-.027-.288-.08-.416-.054-.128-.171-.251-.352-.368-.171-.117-.416-.229-.736-.336-.32-.107-.742-.213-1.264-.32-1.014-.213-1.776-.496-2.288-.848-.502-.363-.752-.837-.752-1.424 0-.309.069-.597.208-.864.138-.277.341-.512.608-.704a3.026 3.026 0 0 1 1.008-.464 5.087 5.087 0 0 1 1.408-.176c.597 0 1.173.101 1.728.304a5.772 5.772 0 0 1 1.408.688l-.64.848a5.044 5.044 0 0 0-1.2-.592 4.342 4.342 0 0 0-1.408-.224c-.662 0-1.126.112-1.392.336-.267.224-.4.485-.4.784 0 .341.176.603.528.784.352.171.928.341 1.728.512.65.139 1.184.288 1.6.448.416.149.741.32.976.512.245.192.41.405.496.64.096.235.144.501.144.8 0 .32-.075.619-.224.896-.15.277-.374.523-.672.736-.288.213-.651.379-1.088.496a5.136 5.136 0 0 1-1.472.192ZM379.93 111.432v-.752h3.376V98.424h-3.376v-.752h4.432v13.76h-4.432ZM323.8 131.464c-.363 0-.672-.123-.928-.368-.245-.245-.368-.571-.368-.976s.123-.731.368-.976c.256-.256.565-.384.928-.384.363 0 .667.128.912.384.256.245.384.571.384.976s-.128.731-.384.976a1.239 1.239 0 0 1-.912.368Zm0 5.728c-.363 0-.672-.123-.928-.368-.245-.245-.368-.571-.368-.976s.123-.731.368-.976c.256-.256.565-.384.928-.384.363 0 .667.128.912.384.256.245.384.571.384.976s-.128.731-.384.976a1.239 1.239 0 0 1-.912.368ZM330.382 137v-11.392h1.312v3.104l-.08 1.84h.048c.405-.437.837-.8 1.296-1.088.469-.288 1.008-.432 1.616-.432.928 0 1.605.267 2.032.8.437.523.656 1.301.656 2.336V137h-1.312v-4.656c0-.736-.139-1.28-.416-1.632-.278-.363-.736-.544-1.376-.544-.235 0-.454.032-.656.096a2.273 2.273 0 0 0-.576.256c-.192.117-.39.267-.592.448a8.119 8.119 0 0 0-.64.608V137h-1.312ZM343.587 137.192a4.059 4.059 0 0 1-1.472-.272 3.672 3.672 0 0 1-1.216-.784 4.017 4.017 0 0 1-.848-1.28 4.675 4.675 0 0 1-.304-1.728c0-.651.102-1.227.304-1.728.214-.512.496-.944.848-1.296a3.55 3.55 0 0 1 1.216-.8c.47-.181.96-.272 1.472-.272s.998.091 1.456.272c.47.181.88.448 1.232.8.352.352.63.784.832 1.296.214.501.32 1.077.32 1.728 0 .64-.106 1.216-.32 1.728a3.79 3.79 0 0 1-.832 1.28 3.62 3.62 0 0 1-1.232.784 3.928 3.928 0 0 1-1.456.272Zm0-1.088c.374 0 .71-.069 1.008-.208.31-.149.571-.352.784-.608.224-.267.395-.581.512-.944a3.92 3.92 0 0 0 .176-1.216 3.92 3.92 0 0 0-.176-1.216 2.76 2.76 0 0 0-.512-.96 2.073 2.073 0 0 0-.784-.608 2.223 2.223 0 0 0-1.008-.224c-.373 0-.714.075-1.024.224-.298.139-.56.341-.784.608a2.947 2.947 0 0 0-.496.96 3.95 3.95 0 0 0-.176 1.216c0 .448.059.853.176 1.216.118.363.283.677.496.944.224.256.486.459.784.608.31.139.651.208 1.024.208ZM352.777 137l-3.28-7.776h1.328l1.792 4.416c.16.395.31.784.448 1.168.15.373.294.747.432 1.12h.064c.139-.373.272-.747.4-1.12.139-.384.288-.773.448-1.168l1.792-4.416h1.264L354.249 137h-1.472ZM363.855 137.192a4.908 4.908 0 0 1-1.648-.272 3.912 3.912 0 0 1-1.328-.8 3.96 3.96 0 0 1-.896-1.28c-.213-.512-.32-1.093-.32-1.744 0-.629.107-1.195.32-1.696.224-.501.517-.928.88-1.28a3.845 3.845 0 0 1 1.264-.8c.48-.192.981-.288 1.504-.288.555 0 1.051.091 1.488.272.448.171.821.416 1.12.736.309.32.544.704.704 1.152.16.448.24.944.24 1.488 0 .149-.005.293-.016.432a3.257 3.257 0 0 1-.048.368h-6.128c.085.885.405 1.552.96 2 .565.437 1.253.656 2.064.656.469 0 .891-.064 1.264-.192.384-.139.752-.32 1.104-.544l.48.864a6.157 6.157 0 0 1-1.328.656c-.491.181-1.051.272-1.68.272Zm-.192-7.12a2.545 2.545 0 0 0-1.712.624 2.391 2.391 0 0 0-.592.736c-.16.299-.272.64-.336 1.024h4.96c-.053-.8-.288-1.397-.704-1.792-.405-.395-.944-.592-1.616-.592ZM370.805 137v-7.776h1.088l.112 1.84h.048a4.717 4.717 0 0 1 1.488-1.488 3.744 3.744 0 0 1 1.984-.544c.288 0 .554.027.8.08.245.043.49.123.736.24l-.304 1.136a6.726 6.726 0 0 0-.704-.208 3.337 3.337 0 0 0-.736-.064c-.587 0-1.152.171-1.696.512-.534.331-1.035.901-1.504 1.712V137h-1.312ZM555.336 109.192c-.512 0-.976-.091-1.392-.272a3.044 3.044 0 0 1-1.056-.784 3.68 3.68 0 0 1-.688-1.28c-.16-.501-.24-1.077-.24-1.728 0-.629.096-1.195.288-1.696a4.21 4.21 0 0 1 .784-1.296 3.541 3.541 0 0 1 1.136-.816 3.202 3.202 0 0 1 1.328-.288c.469 0 .885.091 1.248.272a4.02 4.02 0 0 1 1.072.736h.048l-.064-1.44v-2.992h1.312V109h-1.088l-.112-1.024h-.048c-.32.331-.704.619-1.152.864a2.866 2.866 0 0 1-1.376.352Zm.272-1.104c.768 0 1.499-.389 2.192-1.168v-3.872c-.352-.331-.699-.565-1.04-.704a2.581 2.581 0 0 0-1.008-.208c-.341 0-.661.075-.96.224a2.308 2.308 0 0 0-.768.608 2.989 2.989 0 0 0-.512.928 3.637 3.637 0 0 0-.192 1.216c0 .939.197 1.669.592 2.192.405.523.971.784 1.696.784ZM565.95 109v-6.704h-3.616v-1.072h4.928V109h-1.312Zm.512-9.408c-.299 0-.55-.091-.752-.272-.203-.192-.304-.443-.304-.752s.101-.555.304-.736a1.05 1.05 0 0 1 .752-.288c.298 0 .549.096.752.288.202.181.304.427.304.736s-.102.56-.304.752a1.09 1.09 0 0 1-.752.272ZM574.883 109l-3.28-7.776h1.328l1.792 4.416c.16.395.31.784.448 1.168.15.373.294.747.432 1.12h.064c.139-.373.272-.747.4-1.12.139-.384.288-.773.448-1.168l1.792-4.416h1.264L576.355 109h-1.472ZM555.8 131.464c-.363 0-.672-.123-.928-.368-.245-.245-.368-.571-.368-.976s.123-.731.368-.976c.256-.256.565-.384.928-.384.363 0 .667.128.912.384.256.245.384.571.384.976s-.128.731-.384.976a1.239 1.239 0 0 1-.912.368Zm0 5.728c-.363 0-.672-.123-.928-.368-.245-.245-.368-.571-.368-.976s.123-.731.368-.976c.256-.256.565-.384.928-.384.363 0 .667.128.912.384.256.245.384.571.384.976s-.128.731-.384.976a1.239 1.239 0 0 1-.912.368ZM565.694 131.464c-.363 0-.672-.123-.928-.368-.246-.245-.368-.571-.368-.976s.122-.731.368-.976c.256-.256.565-.384.928-.384.362 0 .666.128.912.384.256.245.384.571.384.976s-.128.731-.384.976c-.246.245-.55.368-.912.368Zm0 5.728c-.363 0-.672-.123-.928-.368-.246-.245-.368-.571-.368-.976s.122-.731.368-.976c.256-.256.565-.384.928-.384.362 0 .666.128.912.384.256.245.384.571.384.976s-.128.731-.384.976c-.246.245-.55.368-.912.368ZM575.747 137.192a6.222 6.222 0 0 1-2.128-.352 7.866 7.866 0 0 1-1.696-.864l.608-.864c.448.32.939.576 1.472.768.544.192 1.179.288 1.904.288.662 0 1.152-.117 1.472-.352.331-.245.496-.533.496-.864a1.06 1.06 0 0 0-.08-.416c-.053-.128-.17-.251-.352-.368-.17-.117-.416-.229-.736-.336-.32-.107-.741-.213-1.264-.32-1.013-.213-1.776-.496-2.288-.848-.501-.363-.752-.837-.752-1.424a1.93 1.93 0 0 1 .816-1.568 3.044 3.044 0 0 1 1.008-.464 5.097 5.097 0 0 1 1.408-.176c.598 0 1.174.101 1.728.304a5.754 5.754 0 0 1 1.408.688l-.64.848a5.007 5.007 0 0 0-1.2-.592 4.333 4.333 0 0 0-1.408-.224c-.661 0-1.125.112-1.392.336-.266.224-.4.485-.4.784 0 .341.176.603.528.784.352.171.928.341 1.728.512.651.139 1.184.288 1.6.448.416.149.742.32.976.512.246.192.411.405.496.64.096.235.144.501.144.8 0 .32-.074.619-.224.896a2.176 2.176 0 0 1-.672.736c-.288.213-.65.379-1.088.496a5.126 5.126 0 0 1-1.472.192ZM585.961 137.192a4.912 4.912 0 0 1-1.648-.272 3.912 3.912 0 0 1-1.328-.8 3.96 3.96 0 0 1-.896-1.28c-.213-.512-.32-1.093-.32-1.744 0-.629.107-1.195.32-1.696.224-.501.518-.928.88-1.28a3.856 3.856 0 0 1 1.264-.8c.48-.192.982-.288 1.504-.288.555 0 1.051.091 1.488.272a2.93 2.93 0 0 1 1.12.736c.31.32.544.704.704 1.152.16.448.24.944.24 1.488 0 .149-.005.293-.016.432-.01.139-.026.261-.048.368h-6.128c.086.885.406 1.552.96 2 .566.437 1.254.656 2.064.656.47 0 .891-.064 1.264-.192.384-.139.752-.32 1.104-.544l.48.864a6.134 6.134 0 0 1-1.328.656c-.49.181-1.05.272-1.68.272Zm-.192-7.12a2.545 2.545 0 0 0-1.712.624 2.406 2.406 0 0 0-.592.736c-.16.299-.272.64-.336 1.024h4.96c-.053-.8-.288-1.397-.704-1.792-.405-.395-.944-.592-1.616-.592ZM597.087 137.192c-.832 0-1.467-.235-1.904-.704-.437-.469-.656-1.168-.656-2.096v-7.712h-2.768v-1.072h4.08v8.88c0 .576.139.992.416 1.248.277.245.651.368 1.12.368.459 0 .944-.117 1.456-.352l.336.976a7.36 7.36 0 0 1-.992.336 4.019 4.019 0 0 1-1.088.128ZM605.749 137.192a4.908 4.908 0 0 1-1.648-.272 3.902 3.902 0 0 1-1.328-.8 3.944 3.944 0 0 1-.896-1.28c-.214-.512-.32-1.093-.32-1.744 0-.629.106-1.195.32-1.696.224-.501.517-.928.88-1.28a3.835 3.835 0 0 1 1.264-.8c.48-.192.981-.288 1.504-.288.554 0 1.05.091 1.488.272.448.171.821.416 1.12.736.309.32.544.704.704 1.152.16.448.24.944.24 1.488 0 .149-.006.293-.016.432a3.257 3.257 0 0 1-.048.368h-6.128c.085.885.405 1.552.96 2 .565.437 1.253.656 2.064.656.469 0 .89-.064 1.264-.192.384-.139.752-.32 1.104-.544l.48.864a6.157 6.157 0 0 1-1.328.656c-.491.181-1.051.272-1.68.272Zm-.192-7.12c-.32 0-.63.053-.928.16-.288.107-.55.261-.784.464a2.391 2.391 0 0 0-.592.736c-.16.299-.272.64-.336 1.024h4.96c-.054-.8-.288-1.397-.704-1.792-.406-.395-.944-.592-1.616-.592ZM615.898 137.192a5.15 5.15 0 0 1-1.696-.272 4.018 4.018 0 0 1-1.344-.784 3.663 3.663 0 0 1-.896-1.28c-.213-.512-.32-1.088-.32-1.728 0-.651.112-1.227.336-1.728.235-.512.55-.944.944-1.296a4.029 4.029 0 0 1 1.376-.8 5.198 5.198 0 0 1 1.68-.272c.64 0 1.19.112 1.648.336.47.224.864.491 1.184.8l-.656.848a4.193 4.193 0 0 0-1.008-.656 2.602 2.602 0 0 0-1.12-.24c-.448 0-.858.075-1.232.224a2.641 2.641 0 0 0-.96.608 2.969 2.969 0 0 0-.608.96 3.174 3.174 0 0 0-.224 1.216c0 .448.07.853.208 1.216.15.363.352.677.608.944.267.256.582.459.944.608.374.139.784.208 1.232.208.48 0 .918-.091 1.312-.272a4.762 4.762 0 0 0 1.088-.704l.592.848a5.065 5.065 0 0 1-1.44.896 4.323 4.323 0 0 1-1.648.32ZM626.56 137.192c-.565 0-1.04-.075-1.424-.224a2.402 2.402 0 0 1-.928-.656 2.735 2.735 0 0 1-.512-1.024 5.556 5.556 0 0 1-.144-1.312v-3.68h-2.192v-.992l2.24-.08.176-2.496h1.088v2.496h3.824v1.072h-3.824v3.696c0 .352.032.661.096.928.064.256.171.475.32.656.15.181.352.32.608.416.256.085.571.128.944.128.374 0 .71-.032 1.008-.096a5.71 5.71 0 0 0 .864-.256l.288.96a8.515 8.515 0 0 1-1.12.32 5.426 5.426 0 0 1-1.312.144ZM635.206 137v-6.704h-3.616v-1.072h4.928V137h-1.312Zm.512-9.408c-.299 0-.549-.091-.752-.272-.203-.192-.304-.443-.304-.752s.101-.555.304-.736c.203-.192.453-.288.752-.288s.549.096.752.288c.203.181.304.427.304.736s-.101.56-.304.752a1.088 1.088 0 0 1-.752.272ZM644.844 137.192a4.055 4.055 0 0 1-1.472-.272 3.662 3.662 0 0 1-1.216-.784 4 4 0 0 1-.848-1.28c-.203-.512-.304-1.088-.304-1.728 0-.651.101-1.227.304-1.728.213-.512.496-.944.848-1.296a3.54 3.54 0 0 1 1.216-.8c.469-.181.96-.272 1.472-.272s.997.091 1.456.272c.469.181.88.448 1.232.8.352.352.629.784.832 1.296.213.501.32 1.077.32 1.728 0 .64-.107 1.216-.32 1.728-.203.501-.48.928-.832 1.28a3.63 3.63 0 0 1-1.232.784 3.932 3.932 0 0 1-1.456.272Zm0-1.088c.373 0 .709-.069 1.008-.208.309-.149.57-.352.784-.608.224-.267.394-.581.512-.944a3.95 3.95 0 0 0 .176-1.216 3.95 3.95 0 0 0-.176-1.216 2.776 2.776 0 0 0-.512-.96 2.089 2.089 0 0 0-.784-.608 2.23 2.23 0 0 0-1.008-.224 2.326 2.326 0 0 0-1.808.832 2.908 2.908 0 0 0-.496.96 3.92 3.92 0 0 0-.176 1.216c0 .448.058.853.176 1.216.117.363.282.677.496.944.224.256.485.459.784.608.309.139.65.208 1.024.208ZM651.425 137v-7.776h1.088l.112 1.328h.064c.406-.437.843-.8 1.312-1.088.47-.288 1.008-.432 1.616-.432.928 0 1.606.267 2.032.8.438.523.656 1.301.656 2.336V137h-1.312v-4.656c0-.736-.138-1.28-.416-1.632-.277-.363-.736-.544-1.376-.544-.234 0-.453.032-.656.096a2.273 2.273 0 0 0-.576.256 4.137 4.137 0 0 0-.592.448 8.297 8.297 0 0 0-.64.608V137h-1.312Z" style="fill-rule:nonzero"/>
  <path d="M.113-.604A.058.058 0 0 1 .07-.622a.058.058 0 0 1-.018-.043.06.06 0 0 1 .018-.044.064.064 0 0 1 .087 0 .064.064 0 0 1 0 .087.06.06 0 0 1-.044.018ZM.071-.51h.085V0H.071v-.51Z" style="fill-rule:nonzero" transform="matrix(18 0 0 18 126.814 345.633)"/>
  <path d="M.28.016a.23.23 0 0 1-.124-.035.243.243 0 0 1-.088-.097.3.3 0 0 1-.032-.139c0-.051.011-.098.032-.139a.243.243 0 0 1 .088-.097A.23.23 0 0 1 .384-.5c.031.018.054.04.07.066h.004L.454-.505v-.211h.085V0H.458v-.075H.454a.19.19 0 0 1-.07.064.202.202 0 0 1-.104.027Zm.009-.077c.03 0 .058-.008.084-.024a.186.186 0 0 0 .062-.068.22.22 0 0 0 .023-.102.22.22 0 0 0-.023-.102.186.186 0 0 0-.062-.068.157.157 0 0 0-.167 0 .17.17 0 0 0-.062.068.213.213 0 0 0-.024.102c0 .038.008.072.024.101.015.03.036.053.062.069a.157.157 0 0 0 .083.024Z" style="fill-rule:nonzero" transform="matrix(18 0 0 18 130.792 345.633)"/>
  <path d="M.062-.345h.317v.07H.062z" style="fill-rule:nonzero" transform="matrix(18 0 0 18 141.628 345.633)"/>
  <path d="M.063-.716h.085V0H.063z" style="fill-rule:nonzero" transform="matrix(18 0 0 18 149.566 345.633)"/>
  <path d="M.113-.604A.058.058 0 0 1 .07-.622a.058.058 0 0 1-.018-.043.06.06 0 0 1 .018-.044.064.064 0 0 1 .087 0 .064.064 0 0 1 0 .087.06.06 0 0 1-.044.018ZM.071-.51h.085V0H.071v-.51Z" style="fill-rule:nonzero" transform="matrix(18 0 0 18 153.364 345.633)"/>
  <path d="M.063-.716h.085v.45l.24-.244h.108v.004l-.2.202.206.3V0H.4L.236-.245l-.088.088V0H.063v-.716Z" style="fill-rule:nonzero" transform="matrix(18 0 0 18 157.432 345.633)"/>
  <path d="M.29.016a.252.252 0 0 1-.131-.035.234.234 0 0 1-.09-.097.287.287 0 0 1-.033-.138c0-.049.01-.094.031-.136a.245.245 0 0 1 .087-.099.225.225 0 0 1 .129-.037c.05 0 .093.011.13.033A.231.231 0 0 1 .498-.4a.305.305 0 0 1 .029.135l-.002.026H.121a.198.198 0 0 0 .028.098.172.172 0 0 0 .144.08.163.163 0 0 0 .151-.092l.072.035A.245.245 0 0 1 .29.016Zm.147-.325a.155.155 0 0 0-.018-.064.142.142 0 0 0-.136-.076.148.148 0 0 0-.102.038.188.188 0 0 0-.055.102h.311Z" style="fill-rule:nonzero" transform="matrix(18 0 0 18 166.252 345.633)"/>
  <path d="M.241.016a.23.23 0 0 1-.137-.039.202.202 0 0 1-.078-.098l.076-.034a.15.15 0 0 0 .139.096.163.163 0 0 0 .082-.02C.346-.092.357-.11.357-.134A.062.062 0 0 0 .33-.186a.241.241 0 0 0-.085-.033L.183-.235a.22.22 0 0 1-.1-.051.12.12 0 0 1-.039-.093c0-.029.009-.055.027-.078a.168.168 0 0 1 .07-.051.247.247 0 0 1 .095-.018c.045 0 .085.01.12.029a.162.162 0 0 1 .074.081l-.074.034C.333-.427.293-.45.235-.45a.135.135 0 0 0-.073.019C.14-.418.13-.401.13-.381c0 .019.007.034.022.045a.17.17 0 0 0 .066.029l.074.019c.05.013.088.031.113.056a.126.126 0 0 1 .038.092.13.13 0 0 1-.027.082.17.17 0 0 1-.073.055.261.261 0 0 1-.102.019Z" style="fill-rule:nonzero" transform="matrix(18 0 0 18 109.759 363.633)"/>
  <path d="M.059-.51H.14v.076h.004A.186.186 0 0 1 .214-.5a.236.236 0 0 1 .316.106.303.303 0 0 1 .032.139.3.3 0 0 1-.032.139.236.236 0 0 1-.212.132.202.202 0 0 1-.104-.027.182.182 0 0 1-.07-.064H.14l.004.07v.221H.059V-.51Zm.25.449a.157.157 0 0 0 .083-.024.17.17 0 0 0 .062-.068.22.22 0 0 0 .023-.102.22.22 0 0 0-.023-.102.17.17 0 0 0-.062-.068.157.157 0 0 0-.166 0 .17.17 0 0 0-.062.068.208.208 0 0 0-.024.102c0 .039.008.073.024.102a.17.17 0 0 0 .062.068.152.152 0 0 0 .083.024Z" style="fill-rule:nonzero" transform="matrix(18 0 0 18 118.183 363.633)"/>
  <path d="M.29.016a.252.252 0 0 1-.131-.035.234.234 0 0 1-.09-.097.287.287 0 0 1-.033-.138c0-.049.01-.094.031-.136a.245.245 0 0 1 .087-.099.225.225 0 0 1 .129-.037c.05 0 .093.011.13.033A.231.231 0 0 1 .498-.4a.305.305 0 0 1 .029.135l-.002.026H.121a.198.198 0 0 0 .028.098.172.172 0 0 0 .144.08.163.163 0 0 0 .151-.092l.072.035A.245.245 0 0 1 .29.016Zm.147-.325a.155.155 0 0 0-.018-.064.142.142 0 0 0-.136-.076.148.148 0 0 0-.102.038.188.188 0 0 0-.055.102h.311Z" style="fill-rule:nonzero" transform="matrix(18 0 0 18 128.947 363.633)"/>
  <path d="M.294.016a.25.25 0 0 1-.225-.133.287.287 0 0 1-.033-.138c0-.051.011-.098.033-.139a.246.246 0 0 1 .225-.132.25.25 0 0 1 .14.038c.037.026.064.06.08.103l-.077.032a.164.164 0 0 0-.056-.072.167.167 0 0 0-.091-.024.157.157 0 0 0-.084.024.18.18 0 0 0-.062.069.207.207 0 0 0-.024.101c0 .038.008.072.024.101a.17.17 0 0 0 .146.093.152.152 0 0 0 .151-.096l.076.032a.223.223 0 0 1-.083.102.245.245 0 0 1-.14.039Z" style="fill-rule:nonzero" transform="matrix(18 0 0 18 139.171 363.633)"/>
  <path d="M.113-.604A.058.058 0 0 1 .07-.622a.058.058 0 0 1-.018-.043.06.06 0 0 1 .018-.044.064.064 0 0 1 .087 0 .064.064 0 0 1 0 .087.06.06 0 0 1-.044.018ZM.071-.51h.085V0H.071v-.51Z" style="fill-rule:nonzero" transform="matrix(18 0 0 18 148.999 363.633)"/>
  <path d="M.481-.604a.058.058 0 0 1-.043-.018.058.058 0 0 1-.018-.043.06.06 0 0 1 .018-.044.064.064 0 0 1 .087 0 .064.064 0 0 1 0 .087.06.06 0 0 1-.044.018Zm-.359.171H.028V-.51h.094v-.055a.155.155 0 0 1 .081-.14.21.21 0 0 1 .157-.007v.083a.279.279 0 0 0-.034-.012.143.143 0 0 0-.038-.004.081.081 0 0 0-.057.023.09.09 0 0 0-.024.066v.046h.317V0H.439v-.433H.207V0H.122v-.433Z" style="fill-rule:nonzero" transform="matrix(18 0 0 18 153.067 363.633)"/>
  <path d="M.294.016a.25.25 0 0 1-.225-.133.287.287 0 0 1-.033-.138c0-.051.011-.098.033-.139a.246.246 0 0 1 .225-.132.25.25 0 0 1 .14.038c.037.026.064.06.08.103l-.077.032a.164.164 0 0 0-.056-.072.167.167 0 0 0-.091-.024.157.157 0 0 0-.084.024.18.18 0 0 0-.062.069.207.207 0 0 0-.024.101c0 .038.008.072.024.101a.17.17 0 0 0 .146.093.152.152 0 0 0 .151-.096l.076.032a.223.223 0 0 1-.083.102.245.245 0 0 1-.14.039Z" style="fill-rule:nonzero" transform="matrix(18 0 0 18 163.669 363.633)"/>
  <path d="M.113-.604A.058.058 0 0 1 .07-.622a.058.058 0 0 1-.018-.043.06.06 0 0 1 .018-.044.064.064 0 0 1 .087 0 .064.064 0 0 1 0 .087.06.06 0 0 1-.044.018ZM.071-.51h.085V0H.071v-.51Z" style="fill-rule:nonzero" transform="matrix(18 0 0 18 173.497 363.633)"/>
  <path d="M.259.008a.148.148 0 0 1-.102-.037C.13-.054.117-.089.117-.134v-.299H.028V-.51h.089v-.144h.085v.144h.125v.077H.202v.278c0 .028.005.049.016.062.013.015.031.022.055.022a.1.1 0 0 0 .056-.017v.083a.118.118 0 0 1-.03.01.225.225 0 0 1-.04.003Z" style="fill-rule:nonzero" transform="matrix(18 0 0 18 177.475 363.633)"/>
  <path d="M.219-.032.008-.51H.1l.16.379h.002L.416-.51h.092L.193.216H.105l.114-.248Z" style="fill-rule:nonzero" transform="matrix(18 0 0 18 184.153 363.633)"/>
  <path d="M.294.016a.25.25 0 0 1-.225-.133.287.287 0 0 1-.033-.138c0-.051.011-.098.033-.139a.246.246 0 0 1 .225-.132.25.25 0 0 1 .14.038c.037.026.064.06.08.103l-.077.032a.164.164 0 0 0-.056-.072.167.167 0 0 0-.091-.024.157.157 0 0 0-.084.024.18.18 0 0 0-.062.069.207.207 0 0 0-.024.101c0 .038.008.072.024.101a.17.17 0 0 0 .146.093.152.152 0 0 0 .151-.096l.076.032a.223.223 0 0 1-.083.102.245.245 0 0 1-.14.039Z" style="fill-rule:nonzero" transform="matrix(18 0 0 18 342.443 345.633)"/>
  <path d="M.063-.716h.085V0H.063z" style="fill-rule:nonzero" transform="matrix(18 0 0 18 352.271 345.633)"/>
  <path d="M.226.016a.216.216 0 0 1-.1-.022.168.168 0 0 1-.068-.061.158.158 0 0 1-.024-.087.15.15 0 0 1 .061-.127.253.253 0 0 1 .154-.045c.031 0 .059.003.086.01a.221.221 0 0 1 .06.023v-.031a.115.115 0 0 0-.04-.092.149.149 0 0 0-.101-.034.172.172 0 0 0-.078.018.147.147 0 0 0-.058.052L.054-.428A.201.201 0 0 1 .137-.5a.264.264 0 0 1 .117-.026c.069 0 .124.018.163.054a.195.195 0 0 1 .059.149V0H.395v-.073H.391a.192.192 0 0 1-.165.089Zm.008-.075a.15.15 0 0 0 .08-.022.167.167 0 0 0 .059-.059.154.154 0 0 0 .022-.081.255.255 0 0 0-.133-.036c-.047 0-.082.01-.105.029a.091.091 0 0 0-.036.075c0 .028.011.051.032.068a.125.125 0 0 0 .081.026Z" style="fill-rule:nonzero" transform="matrix(18 0 0 18 355.979 345.633)"/>
  <path d="M.241.016a.23.23 0 0 1-.137-.039.202.202 0 0 1-.078-.098l.076-.034a.15.15 0 0 0 .139.096.163.163 0 0 0 .082-.02C.346-.092.357-.11.357-.134A.062.062 0 0 0 .33-.186a.241.241 0 0 0-.085-.033L.183-.235a.22.22 0 0 1-.1-.051.12.12 0 0 1-.039-.093c0-.029.009-.055.027-.078a.168.168 0 0 1 .07-.051.247.247 0 0 1 .095-.018c.045 0 .085.01.12.029a.162.162 0 0 1 .074.081l-.074.034C.333-.427.293-.45.235-.45a.135.135 0 0 0-.073.019C.14-.418.13-.401.13-.381c0 .019.007.034.022.045a.17.17 0 0 0 .066.029l.074.019c.05.013.088.031.113.056a.126.126 0 0 1 .038.092.13.13 0 0 1-.027.082.17.17 0 0 1-.073.055.261.261 0 0 1-.102.019Z" style="fill-rule:nonzero" transform="matrix(18 0 0 18 365.447 345.633)"/>
  <path d="M.241.016a.23.23 0 0 1-.137-.039.202.202 0 0 1-.078-.098l.076-.034a.15.15 0 0 0 .139.096.163.163 0 0 0 .082-.02C.346-.092.357-.11.357-.134A.062.062 0 0 0 .33-.186a.241.241 0 0 0-.085-.033L.183-.235a.22.22 0 0 1-.1-.051.12.12 0 0 1-.039-.093c0-.029.009-.055.027-.078a.168.168 0 0 1 .07-.051.247.247 0 0 1 .095-.018c.045 0 .085.01.12.029a.162.162 0 0 1 .074.081l-.074.034C.333-.427.293-.45.235-.45a.135.135 0 0 0-.073.019C.14-.418.13-.401.13-.381c0 .019.007.034.022.045a.17.17 0 0 0 .066.029l.074.019c.05.013.088.031.113.056a.126.126 0 0 1 .038.092.13.13 0 0 1-.027.082.17.17 0 0 1-.073.055.261.261 0 0 1-.102.019Z" style="fill-rule:nonzero" transform="matrix(18 0 0 18 373.961 345.633)"/>
  <path d="M.062-.345h.317v.07H.062z" style="fill-rule:nonzero" transform="matrix(18 0 0 18 382.475 345.633)"/>
  <path d="M.063-.716h.085V0H.063z" style="fill-rule:nonzero" transform="matrix(18 0 0 18 390.413 345.633)"/>
  <path d="M.113-.604A.058.058 0 0 1 .07-.622a.058.058 0 0 1-.018-.043.06.06 0 0 1 .018-.044.064.064 0 0 1 .087 0 .064.064 0 0 1 0 .087.06.06 0 0 1-.044.018ZM.071-.51h.085V0H.071v-.51Z" style="fill-rule:nonzero" transform="matrix(18 0 0 18 394.211 345.633)"/>
  <path d="M.063-.716h.085v.45l.24-.244h.108v.004l-.2.202.206.3V0H.4L.236-.245l-.088.088V0H.063v-.716Z" style="fill-rule:nonzero" transform="matrix(18 0 0 18 398.279 345.633)"/>
  <path d="M.29.016a.252.252 0 0 1-.131-.035.234.234 0 0 1-.09-.097.287.287 0 0 1-.033-.138c0-.049.01-.094.031-.136a.245.245 0 0 1 .087-.099.225.225 0 0 1 .129-.037c.05 0 .093.011.13.033A.231.231 0 0 1 .498-.4a.305.305 0 0 1 .029.135l-.002.026H.121a.198.198 0 0 0 .028.098.172.172 0 0 0 .144.08.163.163 0 0 0 .151-.092l.072.035A.245.245 0 0 1 .29.016Zm.147-.325a.155.155 0 0 0-.018-.064.142.142 0 0 0-.136-.076.148.148 0 0 0-.102.038.188.188 0 0 0-.055.102h.311Z" style="fill-rule:nonzero" transform="matrix(18 0 0 18 407.099 345.633)"/>
  <path d="M.241.016a.23.23 0 0 1-.137-.039.202.202 0 0 1-.078-.098l.076-.034a.15.15 0 0 0 .139.096.163.163 0 0 0 .082-.02C.346-.092.357-.11.357-.134A.062.062 0 0 0 .33-.186a.241.241 0 0 0-.085-.033L.183-.235a.22.22 0 0 1-.1-.051.12.12 0 0 1-.039-.093c0-.029.009-.055.027-.078a.168.168 0 0 1 .07-.051.247.247 0 0 1 .095-.018c.045 0 .085.01.12.029a.162.162 0 0 1 .074.081l-.074.034C.333-.427.293-.45.235-.45a.135.135 0 0 0-.073.019C.14-.418.13-.401.13-.381c0 .019.007.034.022.045a.17.17 0 0 0 .066.029l.074.019c.05.013.088.031.113.056a.126.126 0 0 1 .038.092.13.13 0 0 1-.027.082.17.17 0 0 1-.073.055.261.261 0 0 1-.102.019Z" style="fill-rule:nonzero" transform="matrix(18 0 0 18 337.997 363.633)"/>
  <path d="M.059-.51H.14v.076h.004A.186.186 0 0 1 .214-.5a.236.236 0 0 1 .316.106.303.303 0 0 1 .032.139.3.3 0 0 1-.032.139.236.236 0 0 1-.212.132.202.202 0 0 1-.104-.027.182.182 0 0 1-.07-.064H.14l.004.07v.221H.059V-.51Zm.25.449a.157.157 0 0 0 .083-.024.17.17 0 0 0 .062-.068.22.22 0 0 0 .023-.102.22.22 0 0 0-.023-.102.17.17 0 0 0-.062-.068.157.157 0 0 0-.166 0 .17.17 0 0 0-.062.068.208.208 0 0 0-.024.102c0 .039.008.073.024.102a.17.17 0 0 0 .062.068.152.152 0 0 0 .083.024Z" style="fill-rule:nonzero" transform="matrix(18 0 0 18 346.421 363.633)"/>
  <path d="M.29.016a.252.252 0 0 1-.131-.035.234.234 0 0 1-.09-.097.287.287 0 0 1-.033-.138c0-.049.01-.094.031-.136a.245.245 0 0 1 .087-.099.225.225 0 0 1 .129-.037c.05 0 .093.011.13.033A.231.231 0 0 1 .498-.4a.305.305 0 0 1 .029.135l-.002.026H.121a.198.198 0 0 0 .028.098.172.172 0 0 0 .144.08.163.163 0 0 0 .151-.092l.072.035A.245.245 0 0 1 .29.016Zm.147-.325a.155.155 0 0 0-.018-.064.142.142 0 0 0-.136-.076.148.148 0 0 0-.102.038.188.188 0 0 0-.055.102h.311Z" style="fill-rule:nonzero" transform="matrix(18 0 0 18 357.185 363.633)"/>
  <path d="M.294.016a.25.25 0 0 1-.225-.133.287.287 0 0 1-.033-.138c0-.051.011-.098.033-.139a.246.246 0 0 1 .225-.132.25.25 0 0 1 .14.038c.037.026.064.06.08.103l-.077.032a.164.164 0 0 0-.056-.072.167.167 0 0 0-.091-.024.157.157 0 0 0-.084.024.18.18 0 0 0-.062.069.207.207 0 0 0-.024.101c0 .038.008.072.024.101a.17.17 0 0 0 .146.093.152.152 0 0 0 .151-.096l.076.032a.223.223 0 0 1-.083.102.245.245 0 0 1-.14.039Z" style="fill-rule:nonzero" transform="matrix(18 0 0 18 367.409 363.633)"/>
  <path d="M.113-.604A.058.058 0 0 1 .07-.622a.058.058 0 0 1-.018-.043.06.06 0 0 1 .018-.044.064.064 0 0 1 .087 0 .064.064 0 0 1 0 .087.06.06 0 0 1-.044.018ZM.071-.51h.085V0H.071v-.51Z" style="fill-rule:nonzero" transform="matrix(18 0 0 18 377.237 363.633)"/>
  <path d="M.481-.604a.058.058 0 0 1-.043-.018.058.058 0 0 1-.018-.043.06.06 0 0 1 .018-.044.064.064 0 0 1 .087 0 .064.064 0 0 1 0 .087.06.06 0 0 1-.044.018Zm-.359.171H.028V-.51h.094v-.055a.155.155 0 0 1 .081-.14.21.21 0 0 1 .157-.007v.083a.279.279 0 0 0-.034-.012.143.143 0 0 0-.038-.004.081.081 0 0 0-.057.023.09.09 0 0 0-.024.066v.046h.317V0H.439v-.433H.207V0H.122v-.433Z" style="fill-rule:nonzero" transform="matrix(18 0 0 18 381.305 363.633)"/>
  <path d="M.294.016a.25.25 0 0 1-.225-.133.287.287 0 0 1-.033-.138c0-.051.011-.098.033-.139a.246.246 0 0 1 .225-.132.25.25 0 0 1 .14.038c.037.026.064.06.08.103l-.077.032a.164.164 0 0 0-.056-.072.167.167 0 0 0-.091-.024.157.157 0 0 0-.084.024.18.18 0 0 0-.062.069.207.207 0 0 0-.024.101c0 .038.008.072.024.101a.17.17 0 0 0 .146.093.152.152 0 0 0 .151-.096l.076.032a.223.223 0 0 1-.083.102.245.245 0 0 1-.14.039Z" style="fill-rule:nonzero" transform="matrix(18 0 0 18 391.907 363.633)"/>
  <path d="M.113-.604A.058.058 0 0 1 .07-.622a.058.058 0 0 1-.018-.043.06.06 0 0 1 .018-.044.064.064 0 0 1 .087 0 .064.064 0 0 1 0 .087.06.06 0 0 1-.044.018ZM.071-.51h.085V0H.071v-.51Z" style="fill-rule:nonzero" transform="matrix(18 0 0 18 401.735 363.633)"/>
  <path d="M.259.008a.148.148 0 0 1-.102-.037C.13-.054.117-.089.117-.134v-.299H.028V-.51h.089v-.144h.085v.144h.125v.077H.202v.278c0 .028.005.049.016.062.013.015.031.022.055.022a.1.1 0 0 0 .056-.017v.083a.118.118 0 0 1-.03.01.225.225 0 0 1-.04.003Z" style="fill-rule:nonzero" transform="matrix(18 0 0 18 405.713 363.633)"/>
  <path d="M.219-.032.008-.51H.1l.16.379h.002L.416-.51h.092L.193.216H.105l.114-.248Z" style="fill-rule:nonzero" transform="matrix(18 0 0 18 412.391 363.633)"/>
  <path d="M.29.016a.252.252 0 0 1-.131-.035.234.234 0 0 1-.09-.097.287.287 0 0 1-.033-.138c0-.049.01-.094.031-.136a.245.245 0 0 1 .087-.099.225.225 0 0 1 .129-.037c.05 0 .093.011.13.033A.231.231 0 0 1 .498-.4a.305.305 0 0 1 .029.135l-.002.026H.121a.198.198 0 0 0 .028.098.172.172 0 0 0 .144.08.163.163 0 0 0 .151-.092l.072.035A.245.245 0 0 1 .29.016Zm.147-.325a.155.155 0 0 0-.018-.064.142.142 0 0 0-.136-.076.148.148 0 0 0-.102.038.188.188 0 0 0-.055.102h.311Z" style="fill-rule:nonzero" transform="matrix(18 0 0 18 559.564 345.633)"/>
  <path d="M.063-.716h.085V0H.063z" style="fill-rule:nonzero" transform="matrix(18 0 0 18 569.698 345.633)"/>
  <path d="M.29.016a.252.252 0 0 1-.131-.035.234.234 0 0 1-.09-.097.287.287 0 0 1-.033-.138c0-.049.01-.094.031-.136a.245.245 0 0 1 .087-.099.225.225 0 0 1 .129-.037c.05 0 .093.011.13.033A.231.231 0 0 1 .498-.4a.305.305 0 0 1 .029.135l-.002.026H.121a.198.198 0 0 0 .028.098.172.172 0 0 0 .144.08.163.163 0 0 0 .151-.092l.072.035A.245.245 0 0 1 .29.016Zm.147-.325a.155.155 0 0 0-.018-.064.142.142 0 0 0-.136-.076.148.148 0 0 0-.102.038.188.188 0 0 0-.055.102h.311Z" style="fill-rule:nonzero" transform="matrix(18 0 0 18 573.406 345.633)"/>
  <path d="M.063-.51h.081v.075h.004A.18.18 0 0 1 .214-.5a.181.181 0 0 1 .093-.026c.037 0 .07.009.098.027a.154.154 0 0 1 .059.072.207.207 0 0 1 .072-.072.193.193 0 0 1 .103-.027c.059 0 .103.018.133.053a.227.227 0 0 1 .044.146V0H.732v-.314c0-.047-.01-.082-.029-.103C.684-.438.655-.449.617-.449a.116.116 0 0 0-.069.022.14.14 0 0 0-.048.059.18.18 0 0 0-.018.08V0H.397v-.313c0-.048-.01-.083-.029-.104C.349-.438.32-.449.283-.449a.116.116 0 0 0-.069.022.143.143 0 0 0-.048.06.188.188 0 0 0-.018.081V0H.063v-.51Z" style="fill-rule:nonzero" transform="matrix(18 0 0 18 583.54 345.633)"/>
  <path d="M.29.016a.252.252 0 0 1-.131-.035.234.234 0 0 1-.09-.097.287.287 0 0 1-.033-.138c0-.049.01-.094.031-.136a.245.245 0 0 1 .087-.099.225.225 0 0 1 .129-.037c.05 0 .093.011.13.033A.231.231 0 0 1 .498-.4a.305.305 0 0 1 .029.135l-.002.026H.121a.198.198 0 0 0 .028.098.172.172 0 0 0 .144.08.163.163 0 0 0 .151-.092l.072.035A.245.245 0 0 1 .29.016Zm.147-.325a.155.155 0 0 0-.018-.064.142.142 0 0 0-.136-.076.148.148 0 0 0-.102.038.188.188 0 0 0-.055.102h.311Z" style="fill-rule:nonzero" transform="matrix(18 0 0 18 599.308 345.633)"/>
  <path d="M.063-.51h.081v.075h.004A.175.175 0 0 1 .215-.5a.2.2 0 0 1 .098-.026c.061 0 .108.018.141.053a.212.212 0 0 1 .048.146V0H.417v-.314c0-.047-.011-.082-.034-.103A.133.133 0 0 0 .29-.449a.124.124 0 0 0-.073.023.15.15 0 0 0-.051.06.182.182 0 0 0-.018.079V0H.063v-.51Z" style="fill-rule:nonzero" transform="matrix(18 0 0 18 609.442 345.633)"/>
  <path d="M.259.008a.148.148 0 0 1-.102-.037C.13-.054.117-.089.117-.134v-.299H.028V-.51h.089v-.144h.085v.144h.125v.077H.202v.278c0 .028.005.049.016.062.013.015.031.022.055.022a.1.1 0 0 0 .056-.017v.083a.118.118 0 0 1-.03.01.225.225 0 0 1-.04.003Z" style="fill-rule:nonzero" transform="matrix(18 0 0 18 619.09 345.633)"/>
  <path d="M.062-.345h.317v.07H.062z" style="fill-rule:nonzero" transform="matrix(18 0 0 18 625.678 345.633)"/>
  <path d="M.063-.716h.085V0H.063z" style="fill-rule:nonzero" transform="matrix(18 0 0 18 633.616 345.633)"/>
  <path d="M.113-.604A.058.058 0 0 1 .07-.622a.058.058 0 0 1-.018-.043.06.06 0 0 1 .018-.044.064.064 0 0 1 .087 0 .064.064 0 0 1 0 .087.06.06 0 0 1-.044.018ZM.071-.51h.085V0H.071v-.51Z" style="fill-rule:nonzero" transform="matrix(18 0 0 18 637.414 345.633)"/>
  <path d="M.063-.716h.085v.45l.24-.244h.108v.004l-.2.202.206.3V0H.4L.236-.245l-.088.088V0H.063v-.716Z" style="fill-rule:nonzero" transform="matrix(18 0 0 18 641.482 345.633)"/>
  <path d="M.29.016a.252.252 0 0 1-.131-.035.234.234 0 0 1-.09-.097.287.287 0 0 1-.033-.138c0-.049.01-.094.031-.136a.245.245 0 0 1 .087-.099.225.225 0 0 1 .129-.037c.05 0 .093.011.13.033A.231.231 0 0 1 .498-.4a.305.305 0 0 1 .029.135l-.002.026H.121a.198.198 0 0 0 .028.098.172.172 0 0 0 .144.08.163.163 0 0 0 .151-.092l.072.035A.245.245 0 0 1 .29.016Zm.147-.325a.155.155 0 0 0-.018-.064.142.142 0 0 0-.136-.076.148.148 0 0 0-.102.038.188.188 0 0 0-.055.102h.311Z" style="fill-rule:nonzero" transform="matrix(18 0 0 18 650.302 345.633)"/>
  <path d="M.241.016a.23.23 0 0 1-.137-.039.202.202 0 0 1-.078-.098l.076-.034a.15.15 0 0 0 .139.096.163.163 0 0 0 .082-.02C.346-.092.357-.11.357-.134A.062.062 0 0 0 .33-.186a.241.241 0 0 0-.085-.033L.183-.235a.22.22 0 0 1-.1-.051.12.12 0 0 1-.039-.093c0-.029.009-.055.027-.078a.168.168 0 0 1 .07-.051.247.247 0 0 1 .095-.018c.045 0 .085.01.12.029a.162.162 0 0 1 .074.081l-.074.034C.333-.427.293-.45.235-.45a.135.135 0 0 0-.073.019C.14-.418.13-.401.13-.381c0 .019.007.034.022.045a.17.17 0 0 0 .066.029l.074.019c.05.013.088.031.113.056a.126.126 0 0 1 .038.092.13.13 0 0 1-.027.082.17.17 0 0 1-.073.055.261.261 0 0 1-.102.019Z" style="fill-rule:nonzero" transform="matrix(18 0 0 18 568.159 363.633)"/>
  <path d="M.059-.51H.14v.076h.004A.186.186 0 0 1 .214-.5a.236.236 0 0 1 .316.106.303.303 0 0 1 .032.139.3.3 0 0 1-.032.139.236.236 0 0 1-.212.132.202.202 0 0 1-.104-.027.182.182 0 0 1-.07-.064H.14l.004.07v.221H.059V-.51Zm.25.449a.157.157 0 0 0 .083-.024.17.17 0 0 0 .062-.068.22.22 0 0 0 .023-.102.22.22 0 0 0-.023-.102.17.17 0 0 0-.062-.068.157.157 0 0 0-.166 0 .17.17 0 0 0-.062.068.208.208 0 0 0-.024.102c0 .039.008.073.024.102a.17.17 0 0 0 .062.068.152.152 0 0 0 .083.024Z" style="fill-rule:nonzero" transform="matrix(18 0 0 18 576.583 363.633)"/>
  <path d="M.29.016a.252.252 0 0 1-.131-.035.234.234 0 0 1-.09-.097.287.287 0 0 1-.033-.138c0-.049.01-.094.031-.136a.245.245 0 0 1 .087-.099.225.225 0 0 1 .129-.037c.05 0 .093.011.13.033A.231.231 0 0 1 .498-.4a.305.305 0 0 1 .029.135l-.002.026H.121a.198.198 0 0 0 .028.098.172.172 0 0 0 .144.08.163.163 0 0 0 .151-.092l.072.035A.245.245 0 0 1 .29.016Zm.147-.325a.155.155 0 0 0-.018-.064.142.142 0 0 0-.136-.076.148.148 0 0 0-.102.038.188.188 0 0 0-.055.102h.311Z" style="fill-rule:nonzero" transform="matrix(18 0 0 18 587.347 363.633)"/>
  <path d="M.294.016a.25.25 0 0 1-.225-.133.287.287 0 0 1-.033-.138c0-.051.011-.098.033-.139a.246.246 0 0 1 .225-.132.25.25 0 0 1 .14.038c.037.026.064.06.08.103l-.077.032a.164.164 0 0 0-.056-.072.167.167 0 0 0-.091-.024.157.157 0 0 0-.084.024.18.18 0 0 0-.062.069.207.207 0 0 0-.024.101c0 .038.008.072.024.101a.17.17 0 0 0 .146.093.152.152 0 0 0 .151-.096l.076.032a.223.223 0 0 1-.083.102.245.245 0 0 1-.14.039Z" style="fill-rule:nonzero" transform="matrix(18 0 0 18 597.571 363.633)"/>
  <path d="M.113-.604A.058.058 0 0 1 .07-.622a.058.058 0 0 1-.018-.043.06.06 0 0 1 .018-.044.064.064 0 0 1 .087 0 .064.064 0 0 1 0 .087.06.06 0 0 1-.044.018ZM.071-.51h.085V0H.071v-.51Z" style="fill-rule:nonzero" transform="matrix(18 0 0 18 607.399 363.633)"/>
  <path d="M.481-.604a.058.058 0 0 1-.043-.018.058.058 0 0 1-.018-.043.06.06 0 0 1 .018-.044.064.064 0 0 1 .087 0 .064.064 0 0 1 0 .087.06.06 0 0 1-.044.018Zm-.359.171H.028V-.51h.094v-.055a.155.155 0 0 1 .081-.14.21.21 0 0 1 .157-.007v.083a.279.279 0 0 0-.034-.012.143.143 0 0 0-.038-.004.081.081 0 0 0-.057.023.09.09 0 0 0-.024.066v.046h.317V0H.439v-.433H.207V0H.122v-.433Z" style="fill-rule:nonzero" transform="matrix(18 0 0 18 611.467 363.633)"/>
  <path d="M.294.016a.25.25 0 0 1-.225-.133.287.287 0 0 1-.033-.138c0-.051.011-.098.033-.139a.246.246 0 0 1 .225-.132.25.25 0 0 1 .14.038c.037.026.064.06.08.103l-.077.032a.164.164 0 0 0-.056-.072.167.167 0 0 0-.091-.024.157.157 0 0 0-.084.024.18.18 0 0 0-.062.069.207.207 0 0 0-.024.101c0 .038.008.072.024.101a.17.17 0 0 0 .146.093.152.152 0 0 0 .151-.096l.076.032a.223.223 0 0 1-.083.102.245.245 0 0 1-.14.039Z" style="fill-rule:nonzero" transform="matrix(18 0 0 18 622.069 363.633)"/>
  <path d="M.113-.604A.058.058 0 0 1 .07-.622a.058.058 0 0 1-.018-.043.06.06 0 0 1 .018-.044.064.064 0 0 1 .087 0 .064.064 0 0 1 0 .087.06.06 0 0 1-.044.018ZM.071-.51h.085V0H.071v-.51Z" style="fill-rule:nonzero" transform="matrix(18 0 0 18 631.897 363.633)"/>
  <path d="M.259.008a.148.148 0 0 1-.102-.037C.13-.054.117-.089.117-.134v-.299H.028V-.51h.089v-.144h.085v.144h.125v.077H.202v.278c0 .028.005.049.016.062.013.015.031.022.055.022a.1.1 0 0 0 .056-.017v.083a.118.118 0 0 1-.03.01.225.225 0 0 1-.04.003Z" style="fill-rule:nonzero" transform="matrix(18 0 0 18 635.875 363.633)"/>
  <path d="M.219-.032.008-.51H.1l.16.379h.002L.416-.51h.092L.193.216H.105l.114-.248Z" style="fill-rule:nonzero" transform="matrix(18 0 0 18 642.553 363.633)"/>
</svg>